<?xml version="1.0" encoding="utf-8"?>
<!-- Generator: Adobe Illustrator 28.0.0, SVG Export Plug-In . SVG Version: 6.00 Build 0)  -->
<svg version="1.1" id="Laag_1" xmlns="http://www.w3.org/2000/svg" xmlns:xlink="http://www.w3.org/1999/xlink" x="0px" y="0px"
	 viewBox="0 0 109.3 25.4" style="enable-background:new 0 0 109.3 25.4;" xml:space="preserve">
<style type="text/css">
	.st0{fill:#FF360D;}
</style>
<path d="M16.1,11.8c2.5,0.8,4.3,3,4.3,6.1c0,3.8-2.7,7.5-9.2,7.5H0V0h11.4c4.5,0,7.8,3.2,7.8,6.7c0,2.6-1.8,4.4-3,5v0.1H16.1z
	 M10,9.8c1.3,0,2.1-0.8,2.1-2c0-1.1-0.8-2-2.1-2H6.9v4.1C6.9,9.8,10,9.8,10,9.8z M10.5,19.7c1.8,0,2.6-1.1,2.6-2.4
	c0-1.4-0.8-2.4-2.5-2.4H7v4.8H10.5z"/>
<path d="M30.1,21.8l-1.2,3.5h-7.4L31,0h7.9l9.5,25.4H41l-1.2-3.5h-9.8V21.8z M36.1,11c-0.7-2-1.1-3.1-1.1-3.1h-0.1
	c0,0-0.4,1-1.1,3.1l-1.7,4.5h5.5L36.1,11z"/>
<path d="M60.6,0c6.3,0,10.1,3.5,10.1,8.9c0,5.4-3.8,8.9-10.1,8.9h-3v7.4h-6.9V0H60.6z M60.8,11.9c2.1,0,3-1.2,3-2.7s-0.8-2.7-3-2.7
	h-3.2v5.5H60.8z"/>
<path class="st0" d="M81.7,15.7c2.8-2.8,4.5-5.2,4.5-7.7c0-1.7-1.4-3.5-3.5-3.5c-2.1,0-3.5,1.7-3.5,4.2h-4.5C75.1,3.1,78.6,0,83.1,0
	c4.9,0,7.7,3.5,7.7,7.3c0,3.5-2.1,7-5.9,10.8l-2.8,2.8h8.7v4.5h-17V23L81.7,15.7z"/>
<path class="st0" d="M102.4,0h4.8v15.8h2.1v4.5h-2.1v5.2h-4.5v-5.2H92.1v-4.5L102.4,0z M102.4,15.8V7.6l-5.5,8.2H102.4z"/>
</svg>
